<?xml version="1.0" encoding="utf-8"?>
<!-- Generator: Adobe Illustrator 26.3.1, SVG Export Plug-In . SVG Version: 6.00 Build 0)  -->
<svg version="1.1" id="Layer_1" xmlns="http://www.w3.org/2000/svg" xmlns:xlink="http://www.w3.org/1999/xlink" x="0px" y="0px"
	 viewBox="0 0 1190.8 339.2" style="enable-background:new 0 0 1190.8 339.2;" xml:space="preserve">
<style type="text/css">
	.st0{fill:#111111;}
	.st1{fill:#FF7A00;}
</style>
<g transform="translate(120,60)">
	<path class="st0" d="M442-16.8v18h25l1,1v2l1,1v2l1,1v3l1,1v2l1,1v3l1,1v2l1,1v3l1,1v2l1,1v3l1,1v2l1,1v3l1,1v2l1,1v3l1,1v3l1,1v2
		l1,1v3l1,1v2l1,1v3l1,1v2l1,1v3l1,1v2l1,1v3l1,1v2l1,1v3l1,1v2l1,1v3l1,1v2l1,1v3l1,1v3l1,1v2l1,1v3l1,1v2l1,1v3l1,1v2l1,1v3l1,1v2
		l1,1v3l1,1v2l1,1v3l1,1v2l1,1v3l1,1v3l1,1v2l1,1v3l1,1v2l1,1v3l1,1v2l1,1v3l1,1v2l1,1v3l1,1v2l1,1v3l1,1v2l1,1v3l1,1v3l1,1v2l1,1v3
		l1,1v2l1,1v3l1,1v2l1,1v3l1,1v2l1,1v3l1,1v2l1,1v3l1,1v2l1,1v3l1,1v2l1,1v3h28l1-1v-2l1-1v-3l1-1v-2l1-1v-3l1-1v-2l1-1v-3l1-1v-2
		l1-1v-3l1-1v-2l1-1v-3l1-1v-3l1-1v-2l1-1v-3l1-1v-2l1-1v-3l1-1v-2l1-1v-3l1-1v-2l1-1v-3l1-1v-2l1-1v-3l1-1v-2l1-1v-3l1-1v-3l1-1v-2
		l1-1v-3l1-1v-2l1-1v-3l1-1v-2l1-1v-3l1-1v-2l1-1v-3l1-1v-2l1-1v-3l1-1v-3l1-1v-2l1-1v-3l1-1v-2l1-1v-3l1-1v-2l1-1v-3l1-1v-2l1-1v-3
		l1-1v-2l1-1v-3l1-1v-2l1-1v-3l1-1v-3l1-1v-2l1-1v-3l1-1v-2l1-1v-3l1-1v-2l1-1v-3l1-1v-2l1-1v-3l1-1v-2l1-1v-3l1-1v-2l1-1v-2l1-1
		l1,1v2l1,1v2l1,1v3l1,1v2l1,1v3l1,1v3l1,1v2l1,1v3l1,1v2l1,1v3l1,1v2l1,1v3l1,1v2l1,1v3l1,1v2l1,1v3l1,1v3l1,1v2l1,1v3l1,1v2l1,1v3
		l1,1v2l1,1v3l1,1v2l1,1v3l1,1v2l1,1v3l1,1v2l1,1v3l1,1v3l1,1v2l1,1v3l1,1v2l1,1v3l1,1v2l1,1v3l1,1v2l1,1v3l1,1v2l1,1v3l1,1v3l1,1v2
		l1,1v3l1,1v2l1,1v3l1,1v2l1,1v3l1,1v2l1,1v3l1,1v2l1,1v3l1,1v2l1,1v3l1,1v3l1,1v2l1,1v3l1,1v2l1,1v3l1,1v2l1,1v3h29v-3l1-1v-2l1-1
		v-3l1-1v-3l1-1v-2l1-1v-3l1-1v-2l1-1v-3l1-1v-2l1-1v-3l1-1v-2l1-1v-3l1-1v-2l1-1v-3l1-1v-2l1-1v-3l1-1v-2l1-1v-3l1-1v-3l1-1v-2l1-1
		v-3l1-1v-2l1-1v-3l1-1v-2l1-1v-3l1-1v-2l1-1v-3l1-1v-2l1-1v-3l1-1v-2l1-1v-3l1-1v-3l1-1v-2l1-1v-3l1-1v-2l1-1v-3l1-1v-2l1-1v-3l1-1
		v-2l1-1v-3l1-1v-2l1-1v-3l1-1v-2l1-1v-3l1-1v-2l1-1v-3l1-1v-3l1-1v-2l1-1v-3l1-1v-2l1-1v-3l1-1v-2l1-1v-3l1-1v-2l1-1v-3l1-1v-2l1-1
		v-3l1-1v-2l1-1v-3l1-1v-3l1-1v-2l1-1v-3l1-1v-2l1-1v-3l1-1v-2l1-1v-3l1-1v-2l1-1v-3l1-1v-1l1-1h25v-18h-75v18h29l1,1v3l-1,1v2l-1,1
		v3l-1,1v3l-1,1v2l-1,1v3l-1,1v2l-1,1v3l-1,1v2l-1,1v3l-1,1v2l-1,1v3l-1,1v3l-1,1v2l-1,1v3l-1,1v2l-1,1v3l-1,1v2l-1,1v3l-1,1v3l-1,1
		v2l-1,1v3l-1,1v2l-1,1v3l-1,1v2l-1,1v3l-1,1v2l-1,1v3l-1,1v3l-1,1v2l-1,1v3l-1,1v2l-1,1v3l-1,1v2l-1,1v3l-1,1v2l-1,1v3l-1,1v3l-1,1
		v2l-1,1v3l-1,1v2l-1,1v3l-1,1v2l-1,1v3l-1,1v2l-1,1v3l-1,1v3l-1,1v2l-1,1v3l-1,1v2l-1,1v3l-1,1v2l-1,1v3l-1,1v2l-1,1v2l-1,1l-1-1
		v-2l-1-1v-3l-1-1v-2l-1-1v-3l-1-1v-2l-1-1v-3l-1-1v-2l-1-1v-3l-1-1v-2l-1-1v-3l-1-1v-2l-1-1v-3l-1-1v-3l-1-1v-2l-1-1v-3l-1-1v-2
		l-1-1v-3l-1-1v-2l-1-1v-3l-1-1v-2l-1-1v-3l-1-1v-2l-1-1v-3l-1-1v-2l-1-1v-3l-1-1v-2l-1-1v-3l-1-1v-3l-1-1v-2l-1-1v-3l-1-1v-2l-1-1
		v-3l-1-1v-2l-1-1v-3l-1-1v-2l-1-1v-3l-1-1v-2l-1-1v-3l-1-1v-2l-1-1v-3l-1-1v-2l-1-1v-3l-1-1v-2l-1-1v-3l-1-1v-3l-1-1v-2l-1-1v-3
		l-1-1v-2l-1-1v-3l-1-1v-2l-1-1v-3l-1-1v-2l-1-1v-3l-1-1v-2l-1-1v-3l-1-1v-2l-1-1v-3l-1-1v-2l-1-1v-3l-1-1v-2l-1-1v-2h-28v2l-1,1v2
		l-1,1v3l-1,1v2l-1,1v3l-1,1v3l-1,1v2l-1,1v3l-1,1v2l-1,1v3l-1,1v2l-1,1v3l-1,1v2l-1,1v3l-1,1v3l-1,1v2l-1,1v3l-1,1v2l-1,1v3l-1,1v2
		l-1,1v3l-1,1v2l-1,1v3l-1,1v3l-1,1v2l-1,1v3l-1,1v2l-1,1v3l-1,1v2l-1,1v3l-1,1v2l-1,1v3l-1,1v3l-1,1v2l-1,1v3l-1,1v2l-1,1v3l-1,1v2
		l-1,1v3l-1,1v2l-1,1v3l-1,1v3l-1,1v2l-1,1v3l-1,1v2l-1,1v3l-1,1v2l-1,1v3l-1,1v2l-1,1v3l-1,1v3l-1,1v2l-1,1v3l-1,1v2l-1,1v3l-1,1v2
		l-1,1v3l-1,1v2l-1,1v3l-1,1v2l-1,1l-1-1v-2l-1-1v-3l-1-1v-2l-1-1v-3l-1-1v-2l-1-1v-3l-1-1v-2l-1-1v-3l-1-1v-3l-1-1v-2l-1-1v-3l-1-1
		v-2l-1-1v-3l-1-1v-2l-1-1v-3l-1-1v-2l-1-1v-3l-1-1v-2l-1-1v-3l-1-1v-2l-1-1v-3l-1-1v-3l-1-1v-2l-1-1v-3l-1-1v-2l-1-1v-3l-1-1v-2
		l-1-1v-3l-1-1v-2l-1-1v-3l-1-1v-2l-1-1v-3l-1-1v-2l-1-1v-3l-1-1v-3l-1-1v-2l-1-1v-3l-1-1v-2l-1-1v-3l-1-1v-2l-1-1v-3l-1-1v-2l-1-1
		v-3l-1-1v-2l-1-1v-3l-1-1v-2l-1-1v-3l-1-1v-3l-1-1v-2l-1-1v-3l-1-1v-2l-1-1v-3l-1-1v-2l-1-1v-3l-1-1v-1l1-1h32v-18H442z"/>
	<path class="st0" d="M197-16.8v18h32l1,1v223l-1,1h-32v18h213v-58h-21v36l-1,1H266l-1-1v-109l1-1h85l1,1v32h21v-86h-21v32l-1,1h-85
		l-1-1v-86l1-1h120l1,1v36h20v-58H197z"/>
	<path class="st0" d="M-120-16.8v18h34l1,1v223l-1,1h-34v18h91v-18h-34l-1-1v-194l1-1l3,3v1l3,3v1l3,3v1l4,4v1l3,3v1l3,3v1l3,3v1
		l3,3v1l4,4v1l3,3v1l3,3v1l3,3v1l3,3v1l4,4v1l3,3v1l3,3v1l3,3v1l3,3v1l4,4v1l3,3v1l3,3v1l3,3v1l3,3v1l4,4v1l3,3v1l3,3v1l3,3v1l3,3v1
		l4,4v1l3,3v1l3,3v1l3,3v1l3,3v1l4,4v1l3,3v1l3,3v1l3,3v1l3,3v1l4,4v1l3,3v1l3,3v1l3,3v1l3,3v1l4,4v1l3,3v1l3,3v1l3,3v1l3,3v1l4,4v1
		l3,3v1l3,3v1l3,3v1l1,1h21V2.2l1-1h34v-18H69v18h34l1,1v185l-1,1l-4-4v-1l-3-3v-1l-3-3v-1l-3-3v-1l-3-3v-1l-4-4v-1l-3-3v-1l-3-3v-1
		l-3-3v-1l-3-3v-1l-4-4v-1l-3-3v-1l-3-3v-1l-3-3v-1l-3-3v-1l-4-4v-1l-3-3v-1l-3-3v-1l-3-3v-1l-3-3v-1l-4-4v-1l-3-3v-1l-3-3v-1l-3-3
		v-1l-3-3v-1l-4-4v-1l-3-3v-1l-3-3v-1l-3-3v-1l-4-4v-1l-3-3v-1l-3-3v-1l-3-3v-1l-3-3v-1l-4-4v-1l-3-3v-1l-3-3v-1l-3-3v-1l-3-3v-1
		l-4-4v-1l-3-3v-1l-3-3v-1l-3-3v-1l-3-3v-1l-4-4v-1l-3-3v-1l-3-3v-1l-3-3v-1l-3-3H-120z"/>
</g>
<path class="st1" d="M1112.4,0l-1.2,1.2h-7.3l-1.2,1.2h-4.9l-1.2,1.2h-9.8l-1.2,1.2h-8.6l-1.2,1.2h-2.4l-1.2,1.2h-2.4l-1.2,1.2h-7.3
	l-1.2,1.2h-7.3l-1.2,1.2h-3.7l-1.2,1.2h-2.4l-1.2,1.2l-1.2-1.2h-4.9l-1.2,1.2h-6.1l-1.2,1.2h-2.4l-1.2,1.2h-11l-1.2,1.2h-17.1
	l-1.2,1.2H990v1.2l-1.2,1.2V22l-1.2,1.2v1.2l-1.2,1.2v1.2l-1.2,1.2v1.2l-1.2,1.2v1.2l-1.2,1.2v3.7l1.2,1.2v1.2l1.2,1.2v1.2l4.9,4.9
	v1.2l9.8,9.8h1.2l2.4,2.4h1.2l1.2,1.2h1.2l1.2,1.2h4.9l1.2,1.2l1.2-1.2h8.6l1.2-1.2h2.4l2.4,2.4h7.3l1.2-1.2h4.9l1.2-1.2h4.9
	l1.2-1.2h3.7l1.2-1.2h3.7l1.2-1.2h4.9l1.2-1.2h4.9l1.2-1.2h7.3l1.2-1.2h6.1l1.2-1.2h9.8l1.2-1.2h1.2l1.2,1.2l-2.4,2.4v1.2l-9.8,9.8
	v1.2l-2.4,2.4V71l-2.4,2.4v1.2l-3.7,3.7v1.2l-1.2,1.2V82l-2.4,2.4v1.2l-2.4,2.4v1.2l-1.2,1.2v1.2l-1.2,1.2v1.2l-1.2,1.2V98l-1.2,1.2
	v1.2l-1.2,1.2v1.2l-1.2,1.2v1.2l-6.1,6.1v1.2l-2.4,2.4v1.2l-6.1,6.1v1.2l-2.4,2.4v1.2l-2.4,2.4v1.2l-2.4,2.4v1.2l-2.4,2.4v1.2
	l-2.4,2.4v1.2l-2.4,2.4v1.2l-2.4,2.4v1.2l-3.7,3.7v1.2l-1.2,1.2v1.2l-1.2,1.2v1.2l-1.2,1.2v1.2l-2.4,2.4v1.2l-1.2,1.2v1.2l-6.1,6.1
	v1.2l-2.4,2.4v1.2l-1.2,1.2v1.2l-1.2,1.2v1.2l-3.7,3.7v1.2l-2.4,2.4v1.2l-2.4,2.4v1.2l-2.4,2.4v1.2l-2.4,2.4v1.2l-2.4,2.4v1.2
	l-2.4,2.4v1.2l-1.2,1.2v1.2l-2.4,2.4v1.2l-1.2,1.2v1.2l-2.4,2.4v1.2l-2.4,2.4v1.2l-1.2,1.2v1.2l-2.4,2.4v1.2l-1.2,1.2v2.4l-2.4,2.4
	v1.2l-4.9,4.9h-1.2l-1.2,1.2v1.2l-1.2,1.2v1.2l-2.4,2.4v1.2l-2.4,2.4v1.2l-1.2,1.2v1.2l-1.2,1.2v2.4l-2.4,2.4v1.2l-2.4,2.4v2.4
	l-2.4,2.4v4.9l1.2,1.2v1.2l-1.2,1.2h-2.4l1.2,1.2v1.2l-1.2,1.2l-1.2-1.2h-1.2l-1.2,1.2v1.2l-2.4,2.4v1.2l-1.2,1.2v1.2l-2.4,2.4v1.2
	l-1.2,1.2v2.4l-1.2,1.2v1.2l-1.2,1.2v3.7l9.8,9.8v1.2l4.9,4.9v1.2l9.8,9.8v1.2h1.2l1.2,1.2v-1.2l1.2-1.2l1.2,1.2h1.2l1.2,1.2h1.2
	l1.2,1.2h3.7l-1.2-1.2l1.2-1.2h3.7l1.2,1.2l2.4-2.4h1.2l1.2-1.2h1.2l2.4-2.4h1.2l2.4-2.4h1.2l1.2-1.2h1.2l1.2-1.2v-2.4l1.2-1.2
	l1.2,1.2l2.4-2.4l1.2,1.2h7.3l1.2-1.2h2.4l1.2-1.2h1.2l1.2-1.2h1.2l1.2-1.2h1.2l1.2-1.2h2.4l1.2-1.2h2.4l1.2-1.2h2.4l1.2-1.2h1.2
	l1.2-1.2h1.2l1.2-1.2h1.2l1.2-1.2h2.4l1.2-1.2h1.2l1.2-1.2h2.4l1.2-1.2h2.4l1.2-1.2h1.2l1.2-1.2h2.4l1.2-1.2h2.4l1.2-1.2h2.4
	l1.2-1.2h2.4l1.2-1.2h2.4l1.2-1.2h2.4l1.2-1.2h2.4l1.2-1.2v-3.7l2.4-2.4h1.2l2.4,2.4v1.2l1.2,1.2h1.2l1.2-1.2h2.4l1.2-1.2h3.7
	l1.2-1.2h6.1l1.2-1.2h2.4l1.2-1.2h1.2l1.2-1.2h2.4l1.2-1.2h2.4l1.2-1.2h3.7l1.2-1.2h2.4l1.2-1.2h3.7l1.2-1.2h2.4l1.2-1.2h3.7
	l1.2-1.2h1.2l1.2-1.2h2.4l1.2-1.2h1.2l1.2-1.2h4.9l1.2-1.2h1.2l2.4-2.4h2.4l1.2-1.2h3.7l1.2-1.2h1.2l2.4-2.4h2.4l1.2-1.2h6.1
	l1.2-1.2l1.2,1.2h1.2l-1.2-1.2v-3.7l-2.4-2.4v-1.2l-1.2-1.2v-1.2l-2.4-2.4v-1.2l-2.4-2.4v-1.2l-1.2-1.2v-1.2l-2.4-2.4V240l-3.7-3.7
	h-1.2l-1.2-1.2h-3.7l-1.2,1.2h-4.9l-1.2,1.2h-6.1l-1.2,1.2h-2.4l-1.2,1.2h-2.4l-1.2,1.2h-6.1l-1.2,1.2h-3.7l-1.2,1.2h-7.3l-1.2,1.2
	h-4.9l-1.2,1.2h-3.7l-1.2,1.2h-3.7l-1.2,1.2h-3.7l-1.2,1.2h-4.9l-1.2,1.2h-3.7l-1.2,1.2h-3.7l-1.2,1.2h-3.7l-1.2,1.2h-3.7l-1.2,1.2
	h-4.9l-1.2,1.2h-3.7l-1.2,1.2h-2.4l-1.2,1.2h-3.7l-1.2,1.2h-3.7l-1.2,1.2h-3.7l-1.2,1.2h-3.7l-1.2,1.2h-2.4l-1.2,1.2h-2.4l-1.2,1.2
	h-3.7l-1.2,1.2h-2.4l-1.2,1.2h-2.4l-1.2,1.2h-3.7l-1.2,1.2h-3.7l-1.2,1.2l-1.2-1.2v-1.2l2.4-2.4v-1.2l1.2-1.2v-1.2l1.2-1.2h-1.2
	l-1.2-1.2l1.2-1.2h2.4l3.7-3.7v-1.2l2.4-2.4v-1.2l1.2-1.2v-1.2l2.4-2.4v-1.2l3.7-3.7v-1.2l1.2-1.2v-1.2l2.4-2.4v-1.2l2.4-2.4v-1.2
	l2.4-2.4v-2.4l1.2-1.2v-1.2l3.7-3.7v-1.2l1.2-1.2v-2.4l6.1-6.1v-2.4l1.2-1.2h1.2l1.2-1.2v-1.2l1.2-1.2v-1.2l3.7-3.7v-1.2l1.2-1.2
	v-1.2l3.7-3.7v-1.2l1.2-1.2v-2.4l1.2-1.2h1.2l3.7-3.7v-1.2l1.2-1.2v-1.2l1.2-1.2v-2.4l2.4-2.4V169l1.2-1.2h1.2l1.2-1.2v-1.2l2.4-2.4
	v-2.4l2.4-2.4v-1.2l3.7-3.7v-1.2l4.9-4.9v-1.2l2.4-2.4V142l2.4-2.4v-1.2l3.7-3.7v-1.2l1.2-1.2V131l2.4-2.4v-1.2l1.2-1.2h1.2v-1.2
	l6.1-6.1v-1.2l3.7-3.7v-1.2l3.7-3.7v-1.2l3.7-3.7v-1.2l2.4-2.4v-1.2l6.1-6.1v-2.4l1.2-1.2h1.2v-1.2l1.2-1.2v-1.2l1.2-1.2l-1.2-1.2
	l1.2-1.2h1.2v-1.2l1.2-1.2h1.2v-1.2l2.4-2.4h1.2v-1.2l1.2-1.2v-3.7l1.2-1.2h2.4l2.4-2.4v-1.2l2.4-2.4v-1.2l3.7-3.7v-1.2l3.7-3.7
	v-2.4l1.2-1.2v-2.4l1.2-1.2v-1.2l-1.2-1.2v-7.3l-1.2-1.2v-2.4l-1.2-1.2v-3.7l-3.7-3.7V22l-2.4-2.4V11l-2.4-2.4V7.3l-1.2-1.2V4.9
	l-3.7-3.7h-1.2l-1.2-1.2h-3.7l-1.2,1.2h-8.6l-1.2,1.2l-1.2-1.2l-1.2,1.2h-1.2l-1.2-1.2h-3.7l-1.2-1.2H1112.4z"/>
</svg>
